<svg width="1200" height="820" viewBox="0 0 1200 820" fill="none" xmlns="http://www.w3.org/2000/svg">
  <rect width="1200" height="820" rx="42" fill="#111111"/>
  <rect x="110" y="58" width="980" height="704" rx="24" fill="#050505" stroke="#2A2A2A" stroke-width="2"/>
  <circle cx="146" cy="94" r="8" fill="#FF5F57"/>
  <circle cx="174" cy="94" r="8" fill="#FFBD2E"/>
  <circle cx="202" cy="94" r="8" fill="#28C840"/>
  <circle cx="142" cy="140" r="18" fill="#242424"/>
  <path d="M142 130v20M134 137l8-7 8 7" stroke="#F5F5F5" stroke-width="3" stroke-linecap="round" stroke-linejoin="round"/>
  <circle cx="1058" cy="140" r="18" fill="#242424"/>
  <path d="M1065 145a12 12 0 1 1-10-17 15 15 0 0 0 10 17Z" fill="#F5F5F5"/>

  <text x="438" y="142" text-anchor="middle" fill="#F8F8F8" font-family="-apple-system, BlinkMacSystemFont, 'Segoe UI', sans-serif" font-size="28" font-weight="700">Work</text>
  <circle cx="438" cy="350" r="142" stroke="#FFFFFF" stroke-opacity="0.16" stroke-width="28"/>
  <line x1="438" y1="208" x2="438" y2="236" stroke="#2F80FF" stroke-width="8" stroke-linecap="round"/>
  <line x1="580" y1="350" x2="552" y2="350" stroke="#2F80FF" stroke-width="8" stroke-linecap="round"/>
  <line x1="438" y1="492" x2="438" y2="464" stroke="#2F80FF" stroke-width="8" stroke-linecap="round"/>
  <line x1="296" y1="350" x2="324" y2="350" stroke="#2F80FF" stroke-width="8" stroke-linecap="round"/>
  <path d="M438 208a142 142 0 1 1-100.41 41.59" stroke="#FF3B30" stroke-width="28" stroke-linecap="round"/>
  <text x="438" y="369" text-anchor="middle" fill="#F8F8F8" font-family="SFMono-Regular, Menlo, monospace" font-size="58" font-weight="700">24:18</text>

  <text x="358" y="559" fill="#FFFFFF" fill-opacity="0.66" font-family="-apple-system, BlinkMacSystemFont, 'Segoe UI', sans-serif" font-size="18">Time</text>
  <rect x="410" y="532" width="116" height="42" rx="9" fill="#252525" stroke="#3A3A3A"/>
  <text x="468" y="559" text-anchor="middle" fill="#F8F8F8" font-family="-apple-system, BlinkMacSystemFont, 'Segoe UI', sans-serif" font-size="18">30 min</text>
  <path d="M508 548l6 7 6-7" stroke="#F8F8F8" stroke-width="2" stroke-linecap="round" stroke-linejoin="round"/>

  <rect x="354" y="600" width="78" height="42" rx="9" fill="#2B2B2B" stroke="#444444"/>
  <text x="393" y="627" text-anchor="middle" fill="#F8F8F8" font-family="-apple-system, BlinkMacSystemFont, 'Segoe UI', sans-serif" font-size="17">Start</text>
  <rect x="444" y="600" width="78" height="42" rx="9" fill="#2B2B2B" stroke="#444444"/>
  <text x="483" y="627" text-anchor="middle" fill="#F8F8F8" font-family="-apple-system, BlinkMacSystemFont, 'Segoe UI', sans-serif" font-size="17">Reset</text>

  <rect x="251" y="664" width="150" height="42" rx="9" fill="#2B2B2B" stroke="#444444"/>
  <path d="M276 695v-22M276 673l14 8v6l-14 8M264 682h12" stroke="#F8F8F8" stroke-width="2.5" stroke-linecap="round" stroke-linejoin="round"/>
  <text x="341" y="691" text-anchor="middle" fill="#F8F8F8" font-family="-apple-system, BlinkMacSystemFont, 'Segoe UI', sans-serif" font-size="16">Milestones on</text>
  <rect x="414" y="668" width="64" height="34" rx="8" fill="#202020"/>
  <rect x="428" y="687" width="8" height="9" rx="2" fill="#0A84FF"/>
  <rect x="442" y="682" width="8" height="14" rx="2" fill="#0A84FF"/>
  <rect x="456" y="677" width="8" height="19" rx="2" fill="#0A84FF"/>
  <rect x="470" y="672" width="8" height="24" rx="2" fill="#FFFFFF" fill-opacity="0.22"/>
  <rect x="494" y="664" width="48" height="42" rx="9" fill="#2B2B2B" stroke="#444444"/>
  <path d="M509 686c0-8 4-13 10-13s10 5 10 13v5h-20v-5Z" stroke="#F8F8F8" stroke-width="2.2"/>
  <path d="M514 673a5 5 0 0 1 10 0" stroke="#F8F8F8" stroke-width="2.2" stroke-linecap="round"/>
  <path d="M510 695h18" stroke="#F8F8F8" stroke-width="2.2" stroke-linecap="round"/>
  <rect x="554" y="664" width="122" height="42" rx="9" fill="#2B2B2B" stroke="#444444"/>
  <path d="M581 675l3 8 8 3-8 3-3 8-3-8-8-3 8-3 3-8Z" stroke="#F8F8F8" stroke-width="2" stroke-linejoin="round"/>
  <text x="628" y="691" text-anchor="middle" fill="#F8F8F8" font-family="-apple-system, BlinkMacSystemFont, 'Segoe UI', sans-serif" font-size="16">Visuals on</text>

  <rect x="700" y="126" width="320" height="568" rx="16" fill="#191919" stroke="#383838"/>
  <rect x="690" y="160" width="3" height="500" rx="1.5" fill="#FFFFFF" fill-opacity="0.18"/>
  <text x="742" y="176" fill="#F8F8F8" font-family="-apple-system, BlinkMacSystemFont, 'Segoe UI', sans-serif" font-size="24" font-weight="700">Focus board</text>
  <rect x="730" y="204" width="260" height="390" rx="10" fill="#090909" stroke="#323232"/>
  <text x="756" y="248" fill="#F8F8F8" font-family="-apple-system, BlinkMacSystemFont, 'Segoe UI', sans-serif" font-size="20" font-weight="700">- Stay on the current task</text>
  <text x="756" y="292" fill="#F8F8F8" font-family="-apple-system, BlinkMacSystemFont, 'Segoe UI', sans-serif" font-size="20">- Keep the next action visible</text>
  <text x="756" y="336" fill="#F8F8F8" font-family="-apple-system, BlinkMacSystemFont, 'Segoe UI', sans-serif" font-size="20">- Avoid unrelated tabs</text>
  <text x="756" y="380" fill="#F8F8F8" font-family="-apple-system, BlinkMacSystemFont, 'Segoe UI', sans-serif" font-size="20">- Write down distractions</text>
  <text x="756" y="424" fill="#F8F8F8" font-family="-apple-system, BlinkMacSystemFont, 'Segoe UI', sans-serif" font-size="20">- Return to the timer</text>
  <text x="756" y="468" fill="#F8F8F8" font-family="-apple-system, BlinkMacSystemFont, 'Segoe UI', sans-serif" font-size="20">- Finish one small step</text>
  <text x="730" y="644" fill="#0A84FF" font-family="-apple-system, BlinkMacSystemFont, 'Segoe UI', sans-serif" font-size="15">Identity Architect</text>
  <text x="990" y="644" text-anchor="end" fill="#FFFFFF" fill-opacity="0.55" font-family="-apple-system, BlinkMacSystemFont, 'Segoe UI', sans-serif" font-size="15">v1.1.0 (2)</text>
  <rect x="1040" y="364" width="34" height="70" rx="9" fill="#242424"/>
  <path d="M1052 382h10M1052 399h10M1052 416h10" stroke="#F5F5F5" stroke-width="2.4" stroke-linecap="round"/>
</svg>
